<?xml version="1.0" encoding="utf-8"?>
<!-- Generator: Adobe Illustrator 17.0.0, SVG Export Plug-In . SVG Version: 6.00 Build 0)  -->
<!DOCTYPE svg PUBLIC "-//W3C//DTD SVG 1.1//EN" "http://www.w3.org/Graphics/SVG/1.1/DTD/svg11.dtd">
<svg version="1.1" id="Layer_1" xmlns="http://www.w3.org/2000/svg" xmlns:xlink="http://www.w3.org/1999/xlink" x="0px" y="0px"
	 width="287.939px" height="239.969px" viewBox="1 1 287.939 239.969" enable-background="new 1 1 287.939 239.969"
	 xml:space="preserve">
<g>
	<path fill="#FFFFFF" d="M106.987,1c11.213,5.253,15.67,12.938,12.898,23.082c-0.757,2.771-2.422,5.485-4.265,7.739
		C96.445,55.27,77.149,78.619,57.053,103.006c2.744,0,4.593,0,6.441,0c88.621,0,117.242-0.005,205.864,0.006
		c11.377,0.001,19.384,7.215,19.578,17.539c0.19,10.098-7.54,18.212-17.678,18.389c-6.661,0.117-13.326,0.024-19.989,0.024
		c-82.624,0-105.249,0-187.873,0c-1.765,0-3.531,0-6.324,0c7.287,8.877,13.886,16.932,20.503,24.972
		c12.167,14.783,24.383,29.526,36.505,44.346c11.086,13.554,8.498,25.298-7.093,32.687c-2.666,0-5.333,0-7.999,0
		c-4.239-3.268-9.224-5.907-12.593-9.908c-19.681-23.368-39.123-46.941-58.353-70.682C18.7,148.847,9.994,136.799,1,124.984
		c0-2.666,0-5.333,0-7.999c1.842-3.093,3.325-6.479,5.58-9.233c26.089-31.861,52.35-63.58,78.41-95.464
		C88.931,7.467,93.055,3.196,98.988,1C101.654,1,104.32,1,106.987,1z"/>
</g>
</svg>
