<?xml version="1.0" encoding="utf-8"?>
<!-- Generator: Adobe Illustrator 17.0.0, SVG Export Plug-In . SVG Version: 6.00 Build 0)  -->
<!DOCTYPE svg PUBLIC "-//W3C//DTD SVG 1.1//EN" "http://www.w3.org/Graphics/SVG/1.1/DTD/svg11.dtd">
<svg version="1.1" id="Layer_1" xmlns="http://www.w3.org/2000/svg" xmlns:xlink="http://www.w3.org/1999/xlink" x="0px" y="0px"
	 width="354.177px" height="122.427px" viewBox="0 0 354.177 122.427" enable-background="new 0 0 354.177 122.427"
	 xml:space="preserve">
<g>
	<defs>
		<rect id="SVGID_1_" width="354.177" height="122.427"/>
	</defs>
	<clipPath id="SVGID_2_">
		<use xlink:href="#SVGID_1_"  overflow="visible"/>
	</clipPath>
	<path clip-path="url(#SVGID_2_)" fill="#FFFFFF" d="M93.133,94.395c9.833-9.821,15.248-22.864,15.248-36.725
		c0-16.867-8.276-32.754-22.14-42.501l-0.801-0.564V3.79c0-1.211-0.586-2.358-1.567-3.069C82.892,0.01,81.62-0.19,80.475,0.187
		L63.064,5.849l-5.812-0.093l-0.278-0.008c-0.175-0.007-0.35-0.012-0.527-0.012c-19.823,0-37.912,11.351-46.616,29.08
		c-0.271-0.488-0.523-0.962-0.754-1.418c-0.679-1.336-1.974-2.135-3.465-2.135c-2.2,0-3.924,1.72-3.924,3.915l0.003,73.764
		l0.101,2.208c0.056,1.223,0.602,2.328,1.466,3.1c-0.194,0.111-0.386,0.219-0.575,0.326c-2.481,1.39-2.95,3.471-2.562,4.955
		c0.451,1.732,2.068,2.896,4.022,2.896c0.2,0,0.41-0.013,0.623-0.038c7.402-0.886,17.263-5.129,24.233-8.534l0.194-0.094
		c0.378-0.185,0.757-0.369,1.129-0.554c3.936-1.964,7.946-4.147,11.171-6.079v10.521c0,2.508,1.803,4.399,4.194,4.399
		c0.639,0,1.289-0.137,1.93-0.406c2.513-1.062,4.808-1.947,6.878-2.736v0.095l4.351-1.773c3.43-1.375,6.082-2.702,7.879-4.713
		l0.15-0.169c0.175-0.207,0.337-0.423,0.486-0.635c0.102-0.145,0.197-0.295,0.344-0.536c0.112-0.18,0.22-0.364,0.302-0.529
		c0.179-0.351,0.335-0.73,0.482-1.164c0.035-0.105,0.067-0.214,0.107-0.364c0.109-0.378,0.193-0.761,0.258-1.17l0.021-0.135
		c0.1-0.7,0.133-1.462,0.097-2.156c-0.004-1.605,0.003-3.943,0.015-7.446l0.001-0.512c0.01-3.151,0.022-7.201,0.031-12.46
		c0-0.983,0.398-1.589,0.768-1.737c0.137-0.055,0.228-0.032,0.337,0.081c0.372,0.393,0.734,1.484,0.632,3.421v17.991
		c0,2.276,1.651,3.993,3.841,3.993c0.589,0,1.177-0.128,1.748-0.379c0.929-0.408,1.809-0.79,2.642-1.151
		c0.263-0.114,0.521-0.226,0.774-0.335v0.225l4.5-2.256c1.069-0.519,1.92-0.977,2.658-1.426c1.927-1.108,3.872-2.426,4.597-5.202
		c0.278-0.842,0.412-1.698,0.412-2.624l-0.002-0.158l0.002-0.083L93.133,94.395z"/>
	<path clip-path="url(#SVGID_2_)" fill="#FFFFFF" d="M138.919,41.191c-1.325-0.819-3.859-1.638-6.472-1.638
		c-5.536,0-10.604,3.898-10.604,10.37c0,6.433,4.99,10.371,10.604,10.371c2.846,0,4.991-0.586,6.628-1.559l-0.273,2.456
		c-1.481,0.856-3.548,1.364-6.588,1.364c-6.628,0-13.022-4.795-13.022-12.67c0-7.915,6.433-12.671,13.022-12.671
		c3.118,0,5.652,0.741,7.251,1.638L138.919,41.191z"/>
	<path clip-path="url(#SVGID_2_)" fill="#FFFFFF" d="M157.913,62.75c-6.862,0-13.022-5.186-13.022-12.905
		c0-7.681,6.16-12.827,13.022-12.827c6.861,0,13.021,5.146,13.021,12.827C170.934,57.564,164.774,62.75,157.913,62.75
		 M157.913,39.357c-5.458,0-10.371,4.171-10.371,10.566c0,6.394,4.913,10.566,10.371,10.566c5.419,0,10.37-4.172,10.37-10.566
		C168.283,43.528,163.332,39.357,157.913,39.357"/>
	<path clip-path="url(#SVGID_2_)" fill="#FFFFFF" d="M187.162,62.75h-0.857l-9.941-25.303h2.767l5.263,13.41
		c0.78,2.028,1.716,4.563,2.417,6.747h0.079c0.702-2.184,1.638-4.641,2.456-6.747l5.263-13.41h2.495L187.162,62.75z"/>
	<rect x="204.325" y="37.447" clip-path="url(#SVGID_2_)" fill="#FFFFFF" width="2.613" height="24.874"/>
	<path clip-path="url(#SVGID_2_)" fill="#FFFFFF" d="M236.648,62.71l-12.164-13.84c-2.028-2.3-4.327-5.068-6.043-7.174l-0.078,0.04
		c0.078,2.3,0.078,4.601,0.078,6.862V62.32h-2.612V37.447h1.833l11.54,13.177c1.675,1.912,3.976,4.601,5.613,6.666l0.078-0.038
		c-0.078-2.221-0.078-4.445-0.078-6.55V37.447h2.612V62.71H236.648z"/>
	<path clip-path="url(#SVGID_2_)" fill="#FFFFFF" d="M258.216,62.75c-6.94,0-13.334-4.913-13.334-12.865
		c0-8.071,6.512-12.867,13.178-12.867c3.236,0,5.965,0.741,7.836,1.911l-0.545,2.34c-1.794-1.131-4.367-1.912-7.018-1.912
		c-5.653,0-10.8,4.015-10.8,10.605c0,6.549,5.108,10.527,10.839,10.527c2.806,0,4.99-0.664,6.432-1.638V52.38h-6.588v-2.146h9.083
		v9.825C264.96,61.853,261.998,62.75,258.216,62.75"/>
	<polygon clip-path="url(#SVGID_2_)" fill="#FFFFFF" points="283.838,39.709 283.838,62.321 281.226,62.321 281.226,39.709 
		272.688,39.709 272.688,37.447 292.415,37.447 292.415,39.709 	"/>
	<path clip-path="url(#SVGID_2_)" fill="#FFFFFF" d="M308.797,62.75c-6.862,0-13.022-5.186-13.022-12.905
		c0-7.681,6.16-12.827,13.022-12.827c6.861,0,13.021,5.146,13.021,12.827C321.818,57.564,315.658,62.75,308.797,62.75
		 M308.797,39.357c-5.459,0-10.371,4.171-10.371,10.566c0,6.394,4.912,10.566,10.371,10.566c5.419,0,10.37-4.172,10.37-10.566
		C319.167,43.528,314.216,39.357,308.797,39.357"/>
	<path clip-path="url(#SVGID_2_)" fill="#FFFFFF" d="M350.093,62.71l-12.164-13.84c-2.027-2.3-4.327-5.068-6.043-7.174l-0.078,0.04
		c0.078,2.3,0.078,4.601,0.078,6.862V62.32h-2.612V37.447h1.833l11.54,13.177c1.676,1.912,3.976,4.601,5.613,6.666l0.078-0.038
		c-0.078-2.221-0.078-4.445-0.078-6.55V37.447h2.612V62.71H350.093z"/>
	<path clip-path="url(#SVGID_2_)" fill="#FFFFFF" d="M126.431,88.708h-5.827V72.956h5.161c2.444,0,4.617,1.605,4.617,4.171
		c0,0.939-0.469,2.124-1.309,2.594c1.383,0.445,2.741,2.073,2.741,4.073C131.814,86.856,129.394,88.708,126.431,88.708
		 M125.172,75.795h-1.136v3.234h1.136c0.914,0,1.753-0.469,1.753-1.604C126.925,76.265,126.086,75.795,125.172,75.795
		 M125.789,81.794h-1.753v4.124h1.753c1.161,0,2.346-0.618,2.346-2.048C128.135,82.461,126.975,81.794,125.789,81.794"/>
	<path clip-path="url(#SVGID_2_)" fill="#FFFFFF" d="M142.669,89.054c-3.753,0-6.815-2.197-6.815-5.999V72.956h3.827v9.827
		c0,1.876,1.21,2.963,3.037,2.963c1.803,0,3.037-1.087,3.037-2.963v-9.827h3.753v10.099
		C149.508,86.833,146.446,89.054,142.669,89.054"/>
	<path clip-path="url(#SVGID_2_)" fill="#FFFFFF" d="M158.485,88.93c-1.777,0-3.481-0.518-4.419-1.087l-0.371-3.58
		c1.284,0.889,2.963,1.506,4.543,1.506c1.358,0,2.223-0.617,2.223-1.58c0-0.913-0.569-1.432-2.025-1.826
		c-3.087-0.841-4.519-2.543-4.519-4.938c0-2.617,1.951-4.717,5.358-4.717c1.803,0,3.309,0.52,3.95,0.889l-0.691,3.087
		c-0.641-0.37-1.901-0.815-2.987-0.815c-1.333,0-1.95,0.593-1.95,1.358c0,0.789,0.666,1.209,1.876,1.557
		c3.012,0.838,4.814,2.393,4.814,5.184C164.287,87.004,162.312,88.93,158.485,88.93"/>
	<rect x="168.577" y="72.956" clip-path="url(#SVGID_2_)" fill="#FFFFFF" width="3.827" height="15.752"/>
	<path clip-path="url(#SVGID_2_)" fill="#FFFFFF" d="M190.002,88.882l-6.197-6.766c-1.012-1.111-2.123-2.395-2.988-3.456
		l-0.049,0.024c0.049,1.111,0.073,2.297,0.073,3.308v6.716h-3.678V72.956h3.086l5.432,5.902c0.766,0.838,1.902,2.073,2.618,3.01
		l0.049-0.024c-0.049-0.962-0.099-1.949-0.099-2.939v-5.949h3.704v15.926H190.002z"/>
	<polygon clip-path="url(#SVGID_2_)" fill="#FFFFFF" points="196.46,88.708 196.46,72.956 205.497,72.956 205.497,76.091 
		200.214,76.091 200.214,79.203 204.559,79.203 204.559,82.412 200.214,82.412 200.214,85.572 206.238,85.572 206.238,88.708 	"/>
	<path clip-path="url(#SVGID_2_)" fill="#FFFFFF" d="M213.983,88.93c-1.777,0-3.481-0.518-4.419-1.087l-0.371-3.58
		c1.284,0.889,2.963,1.506,4.543,1.506c1.359,0,2.223-0.617,2.223-1.58c0-0.913-0.568-1.432-2.025-1.826
		c-3.086-0.841-4.519-2.543-4.519-4.938c0-2.617,1.951-4.717,5.358-4.717c1.803,0,3.31,0.52,3.951,0.889l-0.692,3.087
		c-0.641-0.37-1.901-0.815-2.987-0.815c-1.333,0-1.95,0.593-1.95,1.358c0,0.789,0.666,1.209,1.876,1.557
		c3.012,0.838,4.814,2.393,4.814,5.184C219.785,87.004,217.811,88.93,213.983,88.93"/>
	<path clip-path="url(#SVGID_2_)" fill="#FFFFFF" d="M228.124,88.93c-1.777,0-3.481-0.518-4.419-1.087l-0.371-3.58
		c1.284,0.889,2.963,1.506,4.543,1.506c1.358,0,2.223-0.617,2.223-1.58c0-0.913-0.569-1.432-2.025-1.826
		c-3.087-0.841-4.518-2.543-4.518-4.938c0-2.617,1.95-4.717,5.357-4.717c1.803,0,3.309,0.52,3.95,0.889l-0.691,3.087
		c-0.641-0.37-1.901-0.815-2.987-0.815c-1.333,0-1.95,0.593-1.95,1.358c0,0.789,0.666,1.209,1.876,1.557
		c3.012,0.838,4.814,2.393,4.814,5.184C233.926,87.004,231.951,88.93,228.124,88.93"/>
	<path clip-path="url(#SVGID_2_)" fill="#FFFFFF" d="M257.174,76.906c-0.741-0.443-1.951-0.815-3.259-0.815
		c-2.79,0-5.037,1.878-5.037,4.791c0,2.888,2.222,4.814,5.21,4.814c1.308,0,2.469-0.246,3.283-0.691l-0.321,3.334
		c-0.839,0.393-1.975,0.591-3.58,0.591c-4.074,0-8.444-2.765-8.444-8.099c0-5.331,4.395-8.122,8.444-8.122
		c1.951,0,3.481,0.419,4.419,0.963L257.174,76.906z"/>
	<path clip-path="url(#SVGID_2_)" fill="#FFFFFF" d="M269.213,89.078c-4.345,0-8.494-3.184-8.494-8.271
		c0-5.036,4.124-8.246,8.494-8.246c4.346,0,8.469,3.184,8.469,8.246C277.682,85.87,273.583,89.078,269.213,89.078 M269.213,75.993
		c-2.371,0-4.592,1.926-4.592,4.865c0,2.936,2.221,4.864,4.592,4.864c2.346,0,4.593-1.928,4.593-4.864
		C273.806,77.919,271.559,75.993,269.213,75.993"/>
	<path clip-path="url(#SVGID_2_)" fill="#FFFFFF" d="M288.535,89.054c-3.754,0-6.815-2.197-6.815-5.999V72.956h3.827v9.827
		c0,1.876,1.21,2.963,3.037,2.963c1.803,0,3.037-1.087,3.037-2.963v-9.827h3.753v10.099
		C295.374,86.833,292.312,89.054,288.535,89.054"/>
	<path clip-path="url(#SVGID_2_)" fill="#FFFFFF" d="M312.721,88.882l-6.197-6.766c-1.012-1.111-2.123-2.395-2.988-3.456
		l-0.049,0.024c0.049,1.111,0.074,2.297,0.074,3.308v6.716h-3.679V72.956h3.086l5.432,5.902c0.766,0.838,1.902,2.073,2.618,3.01
		l0.049-0.024c-0.049-0.962-0.099-1.949-0.099-2.939v-5.949h3.704v15.926H312.721z"/>
	<path clip-path="url(#SVGID_2_)" fill="#FFFFFF" d="M330.835,76.906c-0.741-0.443-1.951-0.815-3.259-0.815
		c-2.79,0-5.037,1.878-5.037,4.791c0,2.888,2.222,4.814,5.21,4.814c1.308,0,2.469-0.246,3.283-0.691l-0.321,3.334
		c-0.839,0.393-1.975,0.591-3.58,0.591c-4.074,0-8.444-2.765-8.444-8.099c0-5.331,4.395-8.122,8.444-8.122
		c1.951,0,3.481,0.419,4.419,0.963L330.835,76.906z"/>
	<rect x="335.838" y="72.956" clip-path="url(#SVGID_2_)" fill="#FFFFFF" width="3.827" height="15.752"/>
	<polygon clip-path="url(#SVGID_2_)" fill="#FFFFFF" points="344.424,88.708 344.424,72.956 348.252,72.956 348.252,85.572 
		354.177,85.572 354.177,88.708 	"/>
	<path clip-path="url(#SVGID_2_)" fill="#4EC1E0" d="M41.552,59.093v-5.438c0-0.52,0.166-1.002,0.443-1.4V34.563L28.239,34.56
		c-0.479,0-0.867,0.388-0.867,0.867v23.214c5.025,5.296,9.378,9.402,10.973,10.881c0.794,0.736,1.25,1.781,1.25,2.869v8.707v0.549
		c0.302-0.481,0.59-0.952,0.863-1.413c0.598-1.008,1.096-1.939,1.537-2.823V60.496C41.718,60.093,41.552,59.612,41.552,59.093"/>
	<path clip-path="url(#SVGID_2_)" fill="#4EC1E0" d="M48.458,34.56h-0.127c0.549,0,0.994,0.444,0.994,0.993v-0.126
		C49.325,34.948,48.937,34.56,48.458,34.56"/>
	<path clip-path="url(#SVGID_2_)" fill="#86D1E7" d="M49.324,35.553v12.572c-0.418,0.431-0.678,1.016-0.678,1.662v1.437
		l-4.625-0.027c-0.841,0-1.58,0.42-2.026,1.058V34.563l6.336-0.003C48.879,34.56,49.324,35.004,49.324,35.553 M42.417,60.976
		c-0.164-0.139-0.301-0.305-0.422-0.48v16.915c0.14-0.281,0.299-0.578,0.422-0.844V60.976z"/>
	<path clip-path="url(#SVGID_2_)" fill="#FFB547" d="M16.439,46.129c-1.885-2.393-3.652-4.812-5.193-7.184
		C18.612,21.229,36.095,8.737,56.447,8.737c0.245,0,0.487,0.015,0.731,0.018c-1.553,0.544-2.595,1.999-2.595,3.651v3.664
		C36.442,16.873,21.292,29.336,16.439,46.129"/>
	<path clip-path="url(#SVGID_2_)" fill="#FFB547" d="M105.381,57.67c0-16.544-8.261-31.186-20.865-40.047v9.308
		c8.339,7.62,13.579,18.579,13.579,30.739c0,8.557-2.597,16.518-7.04,23.141c-0.001,1.958-0.014,4.92-0.026,7.818
		c-0.006,1.259-0.011,2.499-0.016,3.644C99.885,83.411,105.381,71.17,105.381,57.67"/>
	<path clip-path="url(#SVGID_2_)" fill="#F128C1" d="M15.797,48.639c-1.955-2.422-3.812-4.889-5.463-7.324
		c-1.516-2.235-2.86-4.442-3.933-6.559c-0.172-0.34-0.481-0.493-0.789-0.493c-0.463,0-0.924,0.344-0.924,0.915v73.627l0.101,2.208
		c0.034,0.763,0.634,1.342,1.368,1.342c0.068,0,0.137-0.005,0.206-0.015c0.86-0.126,1.701-0.288,2.532-0.466
		c7.135-4.632,13.289-9.835,18.352-14.963c0.151-0.152,0.286-0.303,0.435-0.456V61.957C23.965,58.12,19.7,53.477,15.797,48.639"/>
	<path clip-path="url(#SVGID_2_)" fill="#FA72D1" d="M37.52,84.771v-12.38c0-0.512-0.209-0.998-0.585-1.347
		c-1.355-1.255-4.93-4.623-9.252-9.086v34.498c1.625-1.666,3.149-3.319,4.54-4.94C34.234,89.173,36.016,86.898,37.52,84.771"/>
	<polyline clip-path="url(#SVGID_2_)" fill="#002D73" points="66.046,59.949 66.051,59.937 66.051,59.936 66.046,59.949 	"/>
	<path clip-path="url(#SVGID_2_)" fill="#002D73" d="M89.37,55.48c-0.033-0.014-0.068-0.021-0.105-0.021h-4.397l-0.012-2.463
		c0-0.122-0.098-0.22-0.22-0.22h-0.121h-1.038h-1.038h-4.064c-0.122,0-0.22,0.098-0.22,0.22v2.489l-4.741-0.026
		c-0.149,0-0.27,0.12-0.27,0.269v3.841c0,0.123,0.079,0.232,0.197,0.268c0.179,0.055,0.414,0.145,0.414,0.249l0.029,0.492
		l-7.71-0.009c0-0.551-0.014-0.632-0.014-0.632c-0.008,0.003-0.014,0.007-0.014,0.012c0,0,0.003-0.013,0.006-0.013v0.001
		c0.015-0.134,0.263-0.25,0.529-0.315c0.149-0.059,0.252-0.197,0.252-0.36v-5.606v-0.001c0-0.157-0.096-0.294-0.233-0.351
		c-0.046-0.02-0.096-0.03-0.149-0.03h-6.224l-0.017-3.487c0-0.172-0.139-0.311-0.312-0.311h-3.239h-1.038h-1.038h-3.549
		c-0.173,0-0.312,0.139-0.312,0.311v3.525l-6.712-0.038c-0.211,0-0.382,0.17-0.382,0.381v5.438c0,0.175,0.112,0.329,0.279,0.38
		c0.253,0.077,0.586,0.206,0.586,0.352v17.213c-0.038,0.076-0.073,0.142-0.092,0.183c-1.275,2.824-2.914,5.628-4.806,8.374
		c-0.338,0.491-0.684,0.98-1.038,1.467c-0.339,0.466-0.685,0.931-1.038,1.393c-1.108,1.45-2.278,2.88-3.499,4.281
		c-1.614,1.85-3.314,3.652-5.065,5.392c-0.418,0.414-0.85,0.806-1.273,1.213c-4.16,4.008-8.541,7.668-12.716,10.757
		c-0.954,0.706-1.896,1.383-2.821,2.029c-0.859,0.599-1.703,1.171-2.528,1.715c-1.946,1.282-3.79,2.411-5.468,3.351
		c-1.727,0.968-1.323,2.234-0.007,2.234c0.086,0,0.175-0.005,0.268-0.016c6.459-0.773,15.426-4.418,23.272-8.25
		c0.436-0.213,0.872-0.425,1.301-0.638c4.722-2.355,8.95-4.726,11.835-6.493c1.841-1.129,3.141-2.013,3.675-2.491v3.582v12.528
		c0,0.894,0.487,1.399,1.193,1.399c0.234,0,0.492-0.055,0.764-0.17c12.902-5.447,19.561-6.087,19.524-12.611
		c-0.001-0.188-0.002-0.389-0.002-0.601c-0.004-1.609,0.003-3.953,0.014-7.463c0.01-3.221,0.023-7.423,0.032-12.964
		c0-2.993,1.959-4.775,3.909-4.775c2.044,0,4.079,1.961,3.829,6.541l-0.001,8.531v7.896v1.564c0,0.629,0.345,0.992,0.842,0.992
		c0.166,0,0.348-0.04,0.54-0.125c9.157-4.026,13.791-5.503,13.791-10.013c0-0.469,0.001-1.021,0.002-1.626
		c0.008-2.935,0.032-7.229,0.042-10.586c0.004-1.093,0.006-2.092,0.006-2.903V61.649v-1.595c0-0.098,0.185-0.183,0.378-0.23
		c0.105-0.043,0.178-0.139,0.178-0.255v-0.88v-2.961C89.534,55.616,89.467,55.521,89.37,55.48 M45.533,95.232
		c-0.003,0.003-0.008,0.005-0.009,0.009c-0.315,0.913-5.007,4.638-11.303,8.494c-2.042,1.252-4.252,2.517-6.539,3.705
		c-2.625,1.363-5.348,2.624-8.025,3.644c-0.331,0.126-0.622-0.28-0.324-0.471c2.596-1.673,5.461-3.709,8.349-5.98
		c3.377-2.655,6.78-5.635,9.837-8.761c3.207-3.28,6.032-6.714,8.014-10.09V95.232z"/>
	<path clip-path="url(#SVGID_2_)" fill="#95D600" d="M62.639,9.142l-4.743,1.556c-0.738,0.242-1.236,0.931-1.236,1.708v3.622v31.371
		h3.239c1.316,0,2.387,1.072,2.387,2.377l0.007,1.422h4.159c0.327,0,0.646,0.063,0.959,0.194c0.911,0.386,1.499,1.274,1.499,2.264
		v4.84l2.159,0.002v-2.77c0-1.294,1.052-2.346,2.358-2.346l2.652,0.015v-0.401c0-0.07,0.015-0.135,0.021-0.203V4.781L62.639,9.142z"
		/>
	<path clip-path="url(#SVGID_2_)" fill="#B4E05B" d="M81.404,3.04l-5.305,1.74v48.012c0.105-1.169,1.079-2.093,2.276-2.093h4.064
		V25.164V16.24V3.79C82.439,3.253,81.914,2.873,81.404,3.04"/>
	<path clip-path="url(#SVGID_2_)" fill="#3C518E" d="M66.576,53.301c-0.045-0.019-0.095-0.029-0.146-0.029h-6.221l0.001-3.486
		c0-0.169-0.155-0.311-0.324-0.311h-2.391v65.066c5.787-2.375,8.861-4.064,8.466-9.181c0.018-4.823,0.086-45.425,0.086-45.425
		c0-0.136,0.256-0.255,0.526-0.321c0.146-0.059,0.247-0.193,0.247-0.354l0.014-5.557C66.834,53.491,66.71,53.359,66.576,53.301"/>
	<path clip-path="url(#SVGID_2_)" fill="#3C518E" d="M89.348,55.464c-0.033-0.014-0.069-0.021-0.106-0.021h-4.391l0.001-2.439
		c0-0.123-0.112-0.227-0.235-0.227h-1.856v49.714c1.066-0.53,1.898-0.986,2.664-1.426c2.756-1.584,3.757-2.65,3.477-7.747
		c0.113-3.519,0.062-32.952,0.062-32.952c0-0.1,0.186-0.186,0.382-0.233c0.106-0.043,0.179-0.141,0.179-0.257l0.01-4.12
		C89.535,55.602,89.445,55.506,89.348,55.464"/>
</g>
</svg>
