<?xml version="1.0" encoding="utf-8"?>
<!-- Generator: Adobe Illustrator 17.0.0, SVG Export Plug-In . SVG Version: 6.00 Build 0)  -->
<!DOCTYPE svg PUBLIC "-//W3C//DTD SVG 1.1//EN" "http://www.w3.org/Graphics/SVG/1.1/DTD/svg11.dtd">
<svg version="1.1" id="Layer_1" xmlns="http://www.w3.org/2000/svg" xmlns:xlink="http://www.w3.org/1999/xlink" x="0px" y="0px"
	 width="287.939px" height="239.971px" viewBox="62.017 1 287.939 239.971" enable-background="new 62.017 1 287.939 239.971"
	 xml:space="preserve">
<g>
	<path fill="#FFFFFF" d="M243.969,240.97c-11.213-5.253-15.67-12.938-12.898-23.082c0.757-2.771,2.422-5.485,4.265-7.739
		c19.175-23.448,38.471-46.797,58.567-71.185c-2.744,0-4.593,0-6.441,0c-88.621,0-117.242,0.005-205.864-0.006
		c-11.377-0.001-19.384-7.215-19.578-17.539c-0.19-10.098,7.54-18.212,17.678-18.389c6.661-0.117,13.326-0.024,19.989-0.024
		c82.624,0,105.249,0,187.873,0c1.765,0,3.531,0,6.324,0c-7.287-8.877-13.886-16.932-20.503-24.972
		c-12.167-14.783-24.383-29.526-36.505-44.346C225.791,20.133,228.378,8.389,243.969,1c2.666,0,5.333,0,7.999,0
		c4.239,3.268,9.224,5.907,12.593,9.908c19.681,23.368,39.123,46.941,58.353,70.682c9.342,11.533,18.048,23.581,27.042,35.396
		c0,2.666,0,5.333,0,7.999c-1.842,3.093-3.325,6.479-5.58,9.233c-26.089,31.861-52.35,63.58-78.41,95.464
		c-3.941,4.821-8.064,9.092-13.997,11.289C249.302,240.97,246.636,240.97,243.969,240.97z"/>
</g>
</svg>
